<svg width="24" height="24" viewBox="0 0 24 24" fill="none" xmlns="http://www.w3.org/2000/svg">
<path fill-rule="evenodd" clip-rule="evenodd" d="M7 18.0004V6.00043L10.0469 4.68762V19.3132L7 18.0004ZM5 5.19104C5 4.57488 5.45096 4.05174 6.0602 3.96081L10 2.50043C10.7517 2.38817 12 2.48416 12 3.24416V20.7562C12 21.5162 11.2517 21.6125 10.5 21.5002L6.0602 20.0396C5.45096 19.9487 5 19.4255 5 18.8094V5.19104ZM14 20.4337L14.5342 20.5955C15.2859 20.7078 16 20.1255 16 19.3655V4.17174C16 3.41174 15.2517 2.88809 14.5 3.00021L14 3.10357V20.4337ZM17 19.4878L17.961 19.6684C19 19.6684 19 19.0002 19 18.3761V5.50021C19 5.00021 19 4.33209 17.961 4.33209L17 4.47555V19.4878Z" fill="#C4CCCC"/>
</svg>
