<svg width="16" height="17" viewBox="0 0 16 17" fill="none" xmlns="http://www.w3.org/2000/svg">
<path fill-rule="evenodd" clip-rule="evenodd" d="M7.0013 2.50008C5.67522 2.50008 4.40345 3.02687 3.46577 3.96455C2.52809 4.90223 2.0013 6.174 2.0013 7.50008C2.0013 8.82616 2.52809 10.0979 3.46577 11.0356C4.40345 11.9733 5.67522 12.5001 7.0013 12.5001C8.32135 12.5001 9.58757 11.9781 10.524 11.0484C10.5291 11.043 10.5343 11.0376 10.5397 11.0323C10.5445 11.0274 10.5494 11.0227 10.5543 11.0181C11.481 10.0821 12.0013 8.81792 12.0013 7.50008C12.0013 6.174 11.4745 4.90223 10.5368 3.96455C9.59916 3.02687 8.32738 2.50008 7.0013 2.50008ZM11.9282 11.4796C12.834 10.3583 13.3346 8.95498 13.3346 7.50008C13.3346 5.82038 12.6674 4.20947 11.4796 3.02174C10.2919 1.83401 8.68101 1.16675 7.0013 1.16675C5.3216 1.16675 3.71069 1.83401 2.52296 3.02174C1.33523 4.20947 0.667969 5.82038 0.667969 7.50008C0.667969 9.17979 1.33523 10.7907 2.52296 11.9784C3.71069 13.1662 5.3216 13.8334 7.0013 13.8334C8.45837 13.8334 9.86367 13.3313 10.9859 12.4229L13.5295 14.9711C13.7896 15.2316 14.2117 15.232 14.4723 14.9719C14.7329 14.7118 14.7332 14.2897 14.4731 14.0291L11.9282 11.4796Z" fill="#C4CCCC"/>
</svg>
