<svg xmlns="http://www.w3.org/2000/svg" version="1.1" xmlns:xlink="http://www.w3.org/1999/xlink" xmlns:svgjs="http://svgjs.dev/svgjs" width="1000" height="161" viewBox="0 0 1000 161"><g transform="matrix(1,0,0,1,-0.6060606060606233,-0.5598414129387663)"><svg viewBox="0 0 396 64" data-background-color="#c8c8c8" preserveAspectRatio="xMidYMid meet" height="161" width="1000" xmlns="http://www.w3.org/2000/svg" xmlns:xlink="http://www.w3.org/1999/xlink"><g id="tight-bounds" transform="matrix(1,0,0,1,0.2400000000000091,0.22254565483279976)"><svg viewBox="0 0 395.52 63.55490869033437" height="63.55490869033437" width="395.52"><g><svg viewBox="0 0 542.8439097042215 87.22794072197591" height="63.55490869033437" width="395.52"><g><rect width="7.827169864221507" height="87.22794072197591" x="119.00676637345154" y="0" fill="#ffffff" opacity="1" stroke-width="0" stroke="transparent" fill-opacity="1" class="rect-i$-0" data-fill-palette-color="primary" rx="1%" id="i$-0" data-palette-color="#000000"></rect></g><g transform="matrix(1,0,0,1,147.32390970422148,0.21698492716908646)"><svg viewBox="0 0 395.52 86.79397086763774" height="86.79397086763774" width="395.52"><g id="textblocktransform"><svg viewBox="0 0 395.52 86.79397086763774" height="86.79397086763774" width="395.52" id="textblock"><g><svg viewBox="0 0 395.52 86.79397086763774" height="86.79397086763774" width="395.52"><g transform="matrix(1,0,0,1,0,0)"><svg width="395.52" viewBox="3.25 -34.25 157.89 34.65" height="86.79397086763774" data-palette-color="#000000"><path d="M17.8 0L17.8 0 3.25 0 3.25-33.7 16.35-33.7Q21.9-33.7 24.8-31.08 27.7-28.45 27.7-24.4L27.7-24.4Q27.7-21.75 26.3-19.75 24.9-17.75 22.65-17.05L22.65-17.05Q28.5-15.3 28.5-9.15L28.5-9.15Q28.5-5.15 25.63-2.58 22.75 0 17.8 0ZM15.05-27.55L15.05-27.55 10.95-27.55 10.95-20 13.8-20Q16.8-20 18.32-21.1 19.85-22.2 19.85-24L19.85-24Q19.85-27.55 15.05-27.55ZM15.05-13.95L15.05-13.95 10.95-13.95 10.95-6.15 15-6.15Q20.7-6.15 20.7-10.05 20.7-13.95 15.05-13.95ZM65.05-16.95L65.05-16.95Q65.05-9.2 60.57-4.42 56.1 0.35 48.65 0.35L48.65 0.35Q41.15 0.35 36.7-4.4 32.25-9.15 32.25-16.95L32.25-16.95Q32.25-24.7 36.72-29.48 41.2-34.25 48.65-34.25L48.65-34.25Q56.15-34.25 60.6-29.5 65.05-24.75 65.05-16.95ZM42.7-24.48Q40.5-21.7 40.5-16.95 40.5-12.2 42.7-9.43 44.9-6.65 48.65-6.65 52.4-6.65 54.6-9.43 56.8-12.2 56.8-16.95 56.8-21.7 54.6-24.48 52.4-27.25 48.65-27.25 44.9-27.25 42.7-24.48ZM101.84-16.95L101.84-16.95Q101.84-9.2 97.37-4.42 92.9 0.35 85.45 0.35L85.45 0.35Q77.95 0.35 73.5-4.4 69.05-9.15 69.05-16.95L69.05-16.95Q69.05-24.7 73.52-29.48 78-34.25 85.45-34.25L85.45-34.25Q92.95-34.25 97.4-29.5 101.84-24.75 101.84-16.95ZM79.5-24.48Q77.3-21.7 77.3-16.95 77.3-12.2 79.5-9.43 81.7-6.65 85.45-6.65 89.2-6.65 91.4-9.43 93.59-12.2 93.59-16.95 93.59-21.7 91.4-24.48 89.2-27.25 85.45-27.25 81.7-27.25 79.5-24.48ZM124.14-16.85L136.09 0 126.44 0 115.14-16.75 126.04-33.7 135.19-33.7 124.14-16.85ZM114.79-33.7L114.79 0 107.09 0 107.09-33.7 114.79-33.7ZM161.14-9.8L161.14-9.8Q161.14-5.25 157.79-2.43 154.44 0.4 148.89 0.4L148.89 0.4Q142.94 0.4 139.19-1.7L139.19-1.7 139.19-9.45Q143.74-6.15 148.89-6.15L148.89-6.15Q150.64-6.15 151.79-7.08 152.94-8 152.94-9.5L152.94-9.5Q152.94-10 152.79-10.45 152.64-10.9 152.24-11.3 151.84-11.7 151.47-11.98 151.09-12.25 150.37-12.63 149.64-13 149.14-13.25 148.64-13.5 147.66-13.95 146.69-14.4 146.09-14.65L146.09-14.65Q142.84-16.15 140.87-18.35 138.89-20.55 138.89-24.2L138.89-24.2Q138.89-28.55 142.09-31.23 145.29-33.9 150.94-33.9L150.94-33.9Q155.99-33.9 159.64-32.2L159.64-32.2 159.64-25Q155.59-27.35 151.24-27.35L151.24-27.35Q149.29-27.35 148.26-26.55 147.24-25.75 147.24-24.5 147.24-23.25 148.49-22.28 149.74-21.3 152.24-20.2L152.24-20.2Q153.79-19.5 154.81-18.98 155.84-18.45 157.16-17.53 158.49-16.6 159.26-15.58 160.04-14.55 160.59-13.05 161.14-11.55 161.14-9.8Z" opacity="1" transform="matrix(1,0,0,1,0,0)" fill="#ffffff" class="undefined-text-0" data-fill-palette-color="primary" id="text-0"></path></svg></g></svg></g></svg></g></svg></g><g transform="matrix(1,0,0,1,0,0.21698492716908646)"><svg viewBox="0 0 98.51679290690309 86.79397086763774" height="86.79397086763774" width="98.51679290690309"><g><svg xmlns="http://www.w3.org/2000/svg" xmlns:xlink="http://www.w3.org/1999/xlink" version="1.1" x="0" y="0" viewBox="6.3 11.5 87.4 77" style="enable-background:new 0 0 100 100;" xml:space="preserve" height="86.79397086763774" width="98.51679290690309" class="icon-icon-0" data-fill-palette-color="accent" id="icon-0"><path d="M72.3 12.3L72.3 12.3 72.3 12.3l-0.4-0.8H28.2L6.3 50l21.8 38.5h43.7L93.7 50 72.3 12.3zM33.3 25.3L9.9 47.7l18.6-32.8L33.3 25.3zM70.7 14.8l6.4 35.7L36.9 25.8 70.7 14.8zM35.5 27.3l41 25.2-41 23.3V27.3zM77 54.5l-7.2 30.8-32.6-8.1L77 54.5zM33.5 75L9.9 50.5l23.6-22.7V75zM33.2 77.6l-4.6 7.7L11.5 55.1 33.2 77.6zM35 78.6l31.4 7.9H30.2L35 78.6zM79.3 53.3l11.6-2.5L72.1 84 79.3 53.3zM90.7 48.9l-11.4 2.5-5.9-33.1L90.7 48.9zM35 24.3l-5-10.8h38.2L35 24.3z" fill="#ffffff" data-fill-palette-color="accent"></path></svg></g></svg></g></svg></g><defs></defs></svg><rect width="395.52" height="63.55490869033437" fill="none" stroke="none" visibility="hidden"></rect></g></svg></g></svg>