<svg width="20" height="21" viewBox="0 0 20 21" fill="none" xmlns="http://www.w3.org/2000/svg">
<path fill-rule="evenodd" clip-rule="evenodd" d="M7.93438 1.58514C8.49191 1.05554 9.23152 0.760254 10.0005 0.760254C10.7695 0.760254 11.5092 1.05558 12.0668 1.58526L18.4437 7.64219C18.9354 8.10929 19.327 8.6716 19.5945 9.29479C19.862 9.91797 20 10.5891 20 11.2673V18.0003C20 18.7959 19.6839 19.559 19.1213 20.1216C18.5587 20.6842 17.7957 21.0003 17 21.0003H3C2.20435 21.0003 1.44129 20.6842 0.87868 20.1216C0.31607 19.559 0 18.7959 0 18.0003V11.2673C-7.15253e-07 10.5891 0.137965 9.91797 0.405505 9.29479C0.673045 8.6716 1.06457 8.10936 1.55625 7.64226L7.93438 1.58514C7.93442 1.5851 7.93433 1.58518 7.93438 1.58514ZM8 19.0003H12V14.0003C12 13.735 11.8946 13.4807 11.7071 13.2931C11.5196 13.1056 11.2652 13.0003 11 13.0003H9C8.73478 13.0003 8.48043 13.1056 8.29289 13.2931C8.10536 13.4807 8 13.735 8 14.0003V19.0003ZM14 19.0003V14.0003C14 13.2046 13.6839 12.4415 13.1213 11.8789C12.5587 11.3163 11.7957 11.0003 11 11.0003H9C8.20435 11.0003 7.44129 11.3163 6.87868 11.8789C6.31607 12.4415 6 13.2046 6 14.0003V19.0003H3C2.73478 19.0003 2.48043 18.8949 2.29289 18.7074C2.10536 18.5198 2 18.2655 2 18.0003V11.2673C2 10.8603 2.08278 10.4577 2.2433 10.0838C2.4038 9.70992 2.63867 9.37261 2.93362 9.09237C2.93358 9.09241 2.93367 9.09233 2.93362 9.09237L9.31162 3.03537C9.49747 2.85882 9.74415 2.76025 10.0005 2.76025C10.2568 2.76025 10.5034 2.8587 10.6892 3.03525L17.0662 9.09225C17.0662 9.09223 17.0663 9.09228 17.0662 9.09225C17.3612 9.3725 17.5962 9.70989 17.7567 10.0838C17.9172 10.4577 18 10.8603 18 11.2673V18.0003C18 18.2655 17.8946 18.5198 17.7071 18.7074C17.5196 18.8949 17.2652 19.0003 17 19.0003H14Z" fill="#C4CCCC"/>
</svg>
