<svg width="927" height="468" viewBox="0 0 927 468" fill="none" xmlns="http://www.w3.org/2000/svg">
<path d="M348.496 296.459C437.224 356.586 594.866 409.165 664.904 382.773C734.942 356.382 694.354 219.52 664.904 180.427C635.454 141.333 534.827 148.691 484.099 154.188C433.372 159.684 259.768 236.331 348.496 296.459Z" stroke="#E26C56" stroke-width="4"/>
<path d="M385.874 290.453C454.521 337.052 576.486 377.8 630.674 357.347C684.861 336.893 653.459 230.826 630.674 200.528C607.889 170.23 530.035 175.933 490.788 180.193C451.541 184.453 317.227 243.854 385.874 290.453Z" stroke="#E26C56" stroke-width="3"/>
<path d="M421.514 284.669C471.014 318.241 558.962 347.597 598.036 332.862C637.11 318.126 614.466 241.712 598.036 219.885C581.606 198.058 525.467 202.166 497.166 205.235C468.865 208.304 372.013 251.098 421.514 284.669Z" stroke="#E26C56" stroke-width="2"/>
<path d="M464.107 277.774C490.726 295.812 538.018 311.586 559.03 303.668C580.041 295.751 567.865 254.692 559.03 242.964C550.195 231.236 520.006 233.444 504.788 235.093C489.57 236.742 437.489 259.736 464.107 277.774Z" stroke="#E26C56"/>
<path d="M2 298C2 298 157.123 249.098 239.544 200.026C321.966 150.953 276.716 131.666 347.512 92.2873C418.308 52.9086 354.547 -22.8688 552.814 25.7758C751.082 74.4204 902 228.33 902 228.33" stroke="#6A9360" stroke-width="4" stroke-linecap="round"/>
<circle cx="877" cy="50" r="50" fill="#FFBA5F"/>
<circle cx="128" cy="137" r="17" fill="#FFBA5F"/>
<circle cx="827" cy="385" r="6" fill="#FFBA5F"/>
<g clip-path="url(#clip0_102_9)">
<path d="M183.783 383.443L292.34 354.355L302.339 391.675L354.258 377.764L344.258 340.444L371.15 333.238L359.68 290.43L332.788 297.636L294.024 152.967L225.641 171.29L172.43 341.074L183.783 383.443ZM281.967 311.253L226.316 326.165L225.846 324.409L256.858 224.571L258.614 224.1L281.967 311.253Z" fill="#223051"/>
<path d="M468.472 341.682C529.381 341.795 566.767 296.795 566.881 219.977C566.994 143.614 529.381 100.091 468.472 100.091C407.562 100.091 370.29 143.5 370.176 219.977C369.949 296.568 407.562 341.682 468.472 341.682ZM468.472 295.659C444.267 295.659 427.79 271.341 428.017 219.977C428.131 169.636 444.381 145.773 468.472 145.773C492.676 145.773 508.926 169.636 509.04 219.977C509.153 271.341 492.79 295.659 468.472 295.659Z" fill="#223051"/>
<path d="M466.472 322.682C527.381 322.795 564.767 277.795 564.881 200.977C564.994 124.614 527.381 81.0909 466.472 81.0909C405.562 81.0909 368.29 124.5 368.176 200.977C367.949 277.568 405.562 322.682 466.472 322.682ZM466.472 276.659C442.267 276.659 425.79 252.341 426.017 200.977C426.131 150.636 442.381 126.773 466.472 126.773C490.676 126.773 506.926 150.636 507.04 200.977C507.153 252.341 490.79 276.659 466.472 276.659Z" fill="#E26C56"/>
<path d="M567.736 334.012L676.293 363.099L666.294 400.419L718.212 414.331L728.212 377.011L755.104 384.217L766.575 341.409L739.682 334.203L778.446 189.534L710.063 171.21L579.089 291.643L567.736 334.012ZM688.861 320.586L633.211 305.674L633.681 303.918L710.458 232.962L712.214 233.433L688.861 320.586Z" fill="#223051"/>
</g>
<defs>
<clipPath id="clip0_102_9">
<rect width="694" height="432" fill="white" transform="translate(121 36)"/>
</clipPath>
</defs>
</svg>
