<svg width="24" height="24" viewBox="0 0 24 24" fill="none" xmlns="http://www.w3.org/2000/svg">
<path fill-rule="evenodd" clip-rule="evenodd" d="M9.93438 2.58514C10.4919 2.05554 11.2315 1.76025 12.0005 1.76025C12.7695 1.76025 13.5092 2.05558 14.0668 2.58526L20.4437 8.64219C20.9354 9.10929 21.327 9.6716 21.5945 10.2948C21.862 10.918 22 11.5891 22 12.2673V19.0003C22 19.7959 21.6839 20.559 21.1213 21.1216C20.5587 21.6842 19.7957 22.0003 19 22.0003H5C4.20435 22.0003 3.44129 21.6842 2.87868 21.1216C2.31607 20.559 2 19.7959 2 19.0003V12.2673C2 11.5891 2.13797 10.918 2.40551 10.2948C2.67304 9.6716 3.06457 9.10936 3.55625 8.64226L9.93438 2.58514C9.93442 2.5851 9.93433 2.58518 9.93438 2.58514ZM10 20.0003H14V15.0003C14 14.735 13.8946 14.4807 13.7071 14.2931C13.5196 14.1056 13.2652 14.0003 13 14.0003H11C10.7348 14.0003 10.4804 14.1056 10.2929 14.2931C10.1054 14.4807 10 14.735 10 15.0003V20.0003ZM16 20.0003V15.0003C16 14.2046 15.6839 13.4415 15.1213 12.8789C14.5587 12.3163 13.7957 12.0003 13 12.0003H11C10.2043 12.0003 9.44129 12.3163 8.87868 12.8789C8.31607 13.4415 8 14.2046 8 15.0003V20.0003H5C4.73478 20.0003 4.48043 19.8949 4.29289 19.7074C4.10536 19.5198 4 19.2655 4 19.0003V12.2673C4 11.8603 4.08278 11.4577 4.2433 11.0838C4.4038 10.7099 4.63867 10.3726 4.93362 10.0924C4.93358 10.0924 4.93367 10.0923 4.93362 10.0924L11.3116 4.03537C11.4975 3.85882 11.7442 3.76025 12.0005 3.76025C12.2568 3.76025 12.5034 3.8587 12.6892 4.03525L19.0662 10.0923C19.0662 10.0922 19.0663 10.0923 19.0662 10.0923C19.3612 10.3725 19.5962 10.7099 19.7567 11.0838C19.9172 11.4577 20 11.8603 20 12.2673V19.0003C20 19.2655 19.8946 19.5198 19.7071 19.7074C19.5196 19.8949 19.2652 20.0003 19 20.0003H16Z" fill="#CDE7BE"/>
</svg>
