<svg width="16" height="16" viewBox="0 0 16 16" fill="none" xmlns="http://www.w3.org/2000/svg">
<path d="M8 0.25C12.2812 0.25 15.75 3.71875 15.75 8C15.75 12.2812 12.2812 15.75 8 15.75C3.71875 15.75 0.25 12.2812 0.25 8C0.25 3.71875 3.71875 0.25 8 0.25ZM11.5594 7.46875L7.325 3.23438C7.03125 2.94063 6.55625 2.94063 6.26562 3.23438L5.73438 3.76562C5.44063 4.05937 5.44063 4.53437 5.73438 4.825L8.90938 8L5.73438 11.175C5.44063 11.4688 5.44063 11.9437 5.73438 12.2344L6.26562 12.7656C6.55937 13.0594 7.03437 13.0594 7.325 12.7656L11.5594 8.53125C11.8531 8.2375 11.8531 7.7625 11.5594 7.46875Z" fill="#181A1A"/>
</svg>
