<svg width="1120" height="702" viewBox="0 0 1120 702" fill="none" xmlns="http://www.w3.org/2000/svg">
<path d="M0 0H1120V702H0V0Z" fill="#FFE0E2"/>
<path fill-rule="evenodd" clip-rule="evenodd" d="M686.796 24.8493L682.688 22L673 35.9696L677.109 38.8189L686.796 24.8493ZM155.121 39L160.082 39.6239L157.961 56.4911L153 55.8671L155.121 39ZM73.7224 61L76.2224 65.3301L61.5 73.8301L59 69.5L73.7224 61ZM275.688 156L279.796 158.849L270.109 172.819L266 169.97L275.688 156ZM222.082 101.624L217.121 101L215 117.867L219.961 118.491L222.082 101.624ZM47.5627 116L44 119.508L55.9279 131.621L59.4905 128.113L47.5627 116ZM847.722 168L850.222 172.33L835.5 180.83L833 176.5L847.722 168ZM1057.22 59.3301L1054.72 55L1040 63.5L1042.5 67.8301L1057.22 59.3301ZM999.121 220L1004.08 220.624L1001.96 237.491L997 236.867L999.121 220ZM1051.08 432.624L1046.12 432L1044 448.867L1048.96 449.491L1051.08 432.624ZM865 299.508L868.563 296L880.491 308.113L876.928 311.621L865 299.508ZM719.563 312L716 315.508L727.928 327.621L731.491 324.113L719.563 312ZM219.397 229.537L217 225.149L231.92 217L234.316 221.388L219.397 229.537ZM137.384 238.228L142.329 238.969L144.849 222.157L139.905 221.416L137.384 238.228ZM48.9448 203.553L44 202.812L46.5202 186L51.465 186.741L48.9448 203.553ZM507 395.812L511.945 396.553L514.465 379.741L509.52 379L507 395.812ZM568.308 563.004L565.736 567.292L551.157 558.549L553.729 554.261L568.308 563.004ZM318.638 222.815L322.282 219.392L310.645 207L307 210.423L318.638 222.815ZM422.303 51L426.412 53.8493L416.724 67.8189L412.616 64.9696L422.303 51ZM407.397 222.537L405 218.149L419.92 210L422.316 214.388L407.397 222.537ZM273 61.149L275.397 65.5371L290.316 57.3881L287.92 53L273 61.149ZM332.945 119.969L328 119.228L330.52 102.416L335.465 103.157L332.945 119.969ZM503.638 74.8149L507.282 71.3921L495.645 59L492 62.4228L503.638 74.8149ZM146.093 440.542L141 439.823L143.516 423L148.609 423.719L146.093 440.542ZM73.2285 366.308L69.007 363.449L59 377.394L63.2215 380.254L73.2285 366.308ZM184 286.541L188.896 285L194.287 301.173L189.391 302.713L184 286.541ZM560.896 303L556 304.541L561.391 320.713L566.287 319.173L560.896 303ZM917.397 73.5371L915 69.149L929.92 61L932.316 65.3881L917.397 73.5371ZM974.15 143.299L979.139 142.961L977.989 126L973 126.338L974.15 143.299ZM826.329 71.9692L821.384 71.228L823.905 54.4158L828.849 55.1571L826.329 71.9692ZM741.938 173.101L744.374 168.734L729.527 160.453L727.091 164.819L741.938 173.101ZM1005.94 545.553L1001 544.812L1003.52 528L1008.46 528.741L1005.94 545.553ZM903.896 210L899 211.541L904.391 227.713L909.287 226.173L903.896 210ZM794 357.541L798.896 356L804.287 372.173L799.391 373.713L794 357.541ZM298.788 486L297 490.688L313.408 496.594L315.195 491.905L298.788 486ZM298.225 319.696L301.916 316.296L313.97 328.897L310.28 332.297L298.225 319.696ZM326.1 332.632L324.444 327.895L308.095 333.962L309.752 338.698L326.1 332.632Z" fill="#FFEFF0"/>
<path fill-rule="evenodd" clip-rule="evenodd" d="M761.615 79.9607C762.747 74.8935 768.332 72.2305 772.982 74.5403L793.44 84.7025C796.817 86.3801 798.565 90.1885 797.633 93.8428L792.669 113.323C791.537 117.765 786.912 120.349 782.536 118.985L761.859 112.539C757.885 111.3 755.525 107.22 756.432 103.157L761.615 79.9607ZM88.8266 145.02C86.8811 149.84 89.9757 155.206 95.1215 155.935L148.028 163.44C152.223 164.035 156.155 161.256 156.993 157.102L164.865 118.102C165.759 113.671 162.807 109.379 158.349 108.63L113.338 101.065C109.636 100.443 105.999 102.478 104.594 105.96L88.8266 145.02ZM977.994 274.968C976.163 279.828 979.376 285.118 984.533 285.733L1048.97 293.419C1053.09 293.91 1056.89 291.179 1057.75 287.124L1070.49 226.644C1071.44 222.142 1068.4 217.77 1063.85 217.084L1009.65 208.916C1005.91 208.354 1002.3 210.475 1000.97 214.005L977.994 274.968ZM355.628 402.366C354.679 407.47 349.193 410.332 344.464 408.19L279.073 378.583C275.637 377.028 273.755 373.285 274.554 369.599L288.007 307.592C288.979 303.112 293.509 300.363 297.931 301.57L363.582 319.48C367.598 320.576 370.103 324.568 369.341 328.661L355.628 402.366ZM114.682 675.255C116.778 680.12 122.937 681.641 127.057 678.312L163.845 648.589C166.864 646.15 167.697 641.896 165.821 638.499L128.006 570.017C125.675 565.795 120.167 564.58 116.276 567.43L84.8944 590.414C81.8855 592.617 80.7986 596.608 82.2743 600.033L114.682 675.255ZM824.603 499.139C820.347 502.119 814.425 500.315 812.552 495.47L805.175 476.377C803.814 472.857 805.099 468.865 808.257 466.799L821.669 458.025C825.527 455.501 830.715 456.752 832.998 460.757L842.633 477.653C844.679 481.242 843.656 485.8 840.271 488.169L824.603 499.139ZM1044.03 672.347C1049.33 672.521 1053.32 667.598 1052.07 662.455L1040.62 615.575C1039.58 611.282 1035.25 608.652 1030.96 609.7L1012.06 614.313C1007.82 615.348 1005.19 619.59 1006.16 623.847L1015.55 665.427C1016.35 668.979 1019.45 671.541 1023.09 671.661L1044.03 672.347ZM98.5604 251.804C98.4532 246.613 93.5062 242.898 88.4911 244.242L65.5328 250.395C61.5117 251.473 58.9891 255.454 59.7323 259.551L63.5987 280.861C64.417 285.371 68.85 288.273 73.3108 287.218L92.8744 282.593C96.5443 281.725 99.1099 278.413 99.032 274.643L98.5604 251.804Z" fill="#FFE6E7"/>
<g clip-path="url(#clip0_1_180)">
<path d="M58.9092 283.361L71.6945 329.209L101.843 320.802L89.0573 274.954L58.9092 283.361Z" fill="#362E2D"/>
<path d="M56.2 286.5L58.8 283.6L87.5 278.7L100.3 320L89.5 344.3L69.3 331.1L56.2 286.5Z" fill="white"/>
<path d="M77.8 304.2L90.6 346.2L68.9 332.3L56.2 286.5L77.8 304.2Z" fill="#4E3734"/>
<path d="M58.8 284.4L85.6 283.4L98.6 323.8L100.3 320L87.5 278.7L59.6 283.4L58.8 284.4Z" fill="#F7F7F7"/>
<path d="M178.9 351.3C195.745 351.3 209.4 337.645 209.4 320.8C209.4 303.955 195.745 290.3 178.9 290.3C162.055 290.3 148.4 303.955 148.4 320.8C148.4 337.645 162.055 351.3 178.9 351.3Z" fill="#8C503E"/>
<path d="M318.2 609.5C318.2 609.5 322 619 323.7 624.2C325.4 629.4 328.4 635.9 330.9 636.1C333.4 636.3 333.9 626.6 332.3 611.8C330.7 597.1 331.9 595 323.8 595.1C320.2 595.1 318.2 594.8 318.2 594.8V609.5V609.5Z" fill="#FF6ED9"/>
<path d="M94.2 660.9C94.2 660.9 83.3 662.6 77.6 664.9C71.9 667.2 67.5 669.5 67.5 672.3C67.5 674.5 77.9 673.8 94.1 673.8C110.7 673.9 115.4 674.3 112.5 665.9C111.5 663 108.9 660.6 108.9 660.6L94.2 660.9Z" fill="#FF6ED9"/>
<path d="M209.4 320.8C209.4 303.9 195.7 290.3 178.9 290.3C174.3 290.3 169.9 291.3 166 293.2L165.2 293.6C164.2 295.5 163.6 297.6 163.6 299.9C163.6 307.2 169.5 313.1 176.8 313.1C177.4 313.1 178 313 178.7 313C177.9 314 177.5 315.3 177.5 316.7C177.5 319.8 179.9 322.4 182.9 322.8C182.6 323.6 182.5 324.4 182.5 325.2C182.5 329 185.6 332.1 189.4 332.1H189.5C190.1 334.9 192.5 336.9 195.5 336.9C196.3 336.9 197.1 336.7 197.8 336.5C198.2 338.6 200.1 340.2 202.3 340.2L204 338.6C207.3 333.6 209.4 327.4 209.4 320.8Z" fill="#4E3734"/>
<path d="M87.8 356.7C87.8 356.7 88.4 346.8 85.5 341.5C82.6 336.2 76.4 333.3 73.5 328.7C70.7 324.1 70.8 317.8 68.1 317.2C65.4 316.6 60.9 327.4 63.8 332.6C66.6 337.8 70.2 341.2 72 346.5C73.8 351.8 76.6 356.5 78.3 358C80.1 359.5 87.8 356.7 87.8 356.7Z" fill="#8C503E"/>
<path d="M258.3 475.6C258.3 475.6 261.8 484.9 266.7 488.5C271.5 492.1 278.4 492.2 282.9 495.3C287.4 498.3 289.8 504.1 292.5 503.5C295.2 502.9 294.8 491.2 290.1 487.7C285.4 484.1 280.7 482.5 276.9 478.4C273.1 474.3 268.6 471.2 266.4 470.5C264.2 469.8 258.3 475.6 258.3 475.6Z" fill="#8C503E"/>
<path d="M142.2 496.1C142.2 496.1 122.7 536.8 114.2 568.4C103 610.2 94.2 661 94.2 661L108.8 660.8C108.8 660.8 126.5 640.2 152.1 598.5C177.9 556.4 189.6 529.7 189.6 529.7C189.6 529.7 206.9 592.1 218.2 601.9C234 615.6 270.9 615 282.6 614.2C294.3 613.4 318.1 609.6 318.1 609.6V594.9C318.1 594.9 288.1 590.1 276.1 585.1C264.1 580.1 249.8 576 249.8 576C249.8 576 245 542.6 241.5 524.9C238 507.2 233.2 486.9 233.2 486.9L142.2 496.1Z" fill="#5441AF"/>
<path d="M189.7 529.6L195.5 517.4C195.5 517.4 198.8 523.9 198.4 532.2C198.1 540.5 196.3 551.6 196.3 551.6L189.7 529.6Z" fill="#4F3D9D"/>
<path d="M52 370.9C52 370.9 57.2 371.1 65.7 376.6C84.7 388.9 90.9 415.5 113.9 419.4C133.2 422.7 145.7 416.9 145.7 416.9C145.7 416.9 138.2 438.4 136.2 448.2C134.2 458 134.4 475.7 126.4 483.5C118.4 491.3 114.7 495 114.7 495C114.7 495 149.7 501.3 178 496C206.3 490.7 221.7 488.8 226.8 489C232 489.2 240 490.2 240 490.2C240 490.2 236.8 483 233.8 475.7C230.8 468.4 230.1 461 230.1 461C230.1 461 249.1 476.2 252.1 481.2C255.1 486.2 255.6 494.5 255.6 494.5C255.6 494.5 259.9 485.2 262.9 482C265.9 478.8 268.2 475 271.9 472.2C275.6 469.4 277.7 467.2 277.7 467.2C277.7 467.2 273.7 467.5 270.2 464.4C266.7 461.2 247 437.1 243 433.2C239 429.4 224 413 224 413C224 413 222.2 360.8 191.3 361.8C171.8 362.4 160.5 367.3 148.1 374C135.8 380.7 124.9 388 124.9 388C124.9 388 103.9 375.3 96.6 360.1C94.1 355 93 351.2 93 351.2C93 351.2 85.3 352.6 74.7 357.8C63.4 363.5 52 370.9 52 370.9Z" fill="#FF353A"/>
<path d="M145.7 416.9C145.7 416.9 156.6 416.6 166.9 413.5C177.2 410.3 188.3 405.4 191 399.1C193.7 392.8 194.9 386.4 194.9 386.4C194.9 386.4 196.8 396.9 192.4 406.8C188 416.7 173.8 421.5 168.5 423.4C163.2 425.3 141.8 428.7 141.8 428.7L145.7 416.9Z" fill="#E2303D"/>
<path d="M225.2 424.2C225.2 424.2 226.8 441.8 227.5 447C228.2 452.2 230.3 461.2 230.3 461.2L235.5 465.4C235.5 465.4 231.8 454.3 230.4 446.4C228.8 438.5 225.2 424.2 225.2 424.2Z" fill="#E2303D"/>
<path d="M186.4 489.2C182.9 489.2 180.1 486.4 180.1 482.9C180.1 479.4 182.9 476.6 186.4 476.6C189.9 476.6 192.7 479.4 192.7 482.9C192.7 486.4 189.9 489.2 186.4 489.2ZM186.4 477.6C183.5 477.6 181.1 480 181.1 482.9C181.1 485.8 183.5 488.2 186.4 488.2C189.3 488.2 191.7 485.8 191.7 482.9C191.7 480 189.4 477.6 186.4 477.6Z" fill="#5441AF"/>
<path d="M214 388.3C216 388.3 217.8 387.3 219 385.8C218.9 385.4 218.7 385 218.6 384.6C217.7 386.2 216 387.2 214.1 387.2C211.2 387.2 208.8 384.8 208.8 381.9C208.8 379 211.2 376.6 214.1 376.6C214.4 376.6 214.7 376.6 215 376.7C214.8 376.3 214.6 376 214.4 375.6C214.3 375.6 214.2 375.6 214.1 375.6C210.6 375.6 207.8 378.4 207.8 381.9C207.8 385.4 210.5 388.3 214 388.3Z" fill="#5441AF"/>
<path d="M131.6 492C136.6 492 140.7 487.9 140.7 482.9C140.7 477.9 136.7 473.9 131.7 473.8C131.6 474.1 131.5 474.5 131.4 474.8C131.5 474.8 131.5 474.8 131.6 474.8C136.1 474.8 139.7 478.4 139.7 482.9C139.7 487.4 136.1 491 131.6 491C128.2 491 125.2 488.8 124 485.8C123.7 486.1 123.5 486.3 123.2 486.6C124.7 489.8 127.9 492 131.6 492Z" fill="#5441AF"/>
<path d="M156 392.9C152 392.9 148.8 389.7 148.8 385.7C148.8 381.7 152 378.5 156 378.5C160 378.5 163.2 381.7 163.2 385.7C163.2 389.7 159.9 392.9 156 392.9ZM156 379.6C152.6 379.6 149.8 382.4 149.8 385.8C149.8 389.2 152.6 392 156 392C159.4 392 162.2 389.2 162.2 385.8C162.2 382.4 159.4 379.6 156 379.6Z" fill="#5441AF"/>
<path d="M98.8 379.6C96.3 379.6 94.2 377.5 94.2 375C94.2 372.5 96.3 370.4 98.8 370.4C101.3 370.4 103.4 372.5 103.4 375C103.4 377.5 101.3 379.6 98.8 379.6ZM98.8 371.4C96.8 371.4 95.2 373 95.2 375C95.2 377 96.8 378.6 98.8 378.6C100.8 378.6 102.4 377 102.4 375C102.4 373 100.8 371.4 98.8 371.4Z" fill="#5441AF"/>
<path d="M246.9 437.4C246.3 438.5 245.1 439.2 243.8 439.2C241.8 439.2 240.2 437.6 240.2 435.6C240.2 434.2 241 433 242.2 432.4C242 432.2 241.7 431.9 241.5 431.7C240.1 432.5 239.2 434 239.2 435.7C239.2 438.2 241.3 440.3 243.8 440.3C245.4 440.3 246.8 439.5 247.6 438.3C247.4 437.9 247.2 437.6 246.9 437.4Z" fill="#5441AF"/>
<path d="M198.4 426.3C195.9 426.3 193.8 424.2 193.8 421.7C193.8 419.2 195.9 417.1 198.4 417.1C200.9 417.1 203 419.2 203 421.7C203 424.2 201 426.3 198.4 426.3ZM198.4 418.2C196.4 418.2 194.8 419.8 194.8 421.8C194.8 423.8 196.4 425.4 198.4 425.4C200.4 425.4 202 423.8 202 421.8C202 419.8 200.4 418.2 198.4 418.2Z" fill="#5441AF"/>
<path d="M66.2 372.4C64.6 372.4 63.2 373.4 62.5 374.7C62.8 374.9 63.1 375 63.4 375.2C63.9 374.1 65 373.4 66.2 373.4C67.9 373.4 69.3 374.8 69.3 376.5C69.3 377.3 69 378.1 68.4 378.6C68.7 378.8 68.9 379 69.2 379.2C69.9 378.5 70.3 377.5 70.3 376.5C70.3 374.2 68.5 372.4 66.2 372.4Z" fill="#5441AF"/>
<path d="M150.2 448.3C147.2 448.3 144.8 445.9 144.8 442.9C144.8 439.9 147.2 437.5 150.2 437.5C153.2 437.5 155.6 439.9 155.6 442.9C155.6 445.9 153.2 448.3 150.2 448.3ZM150.2 438.4C147.8 438.4 145.8 440.4 145.8 442.8C145.8 445.2 147.8 447.2 150.2 447.2C152.6 447.2 154.6 445.2 154.6 442.8C154.6 440.4 152.7 438.4 150.2 438.4Z" fill="#5441AF"/>
<path d="M248.9 469.5C246.7 469.5 244.8 470.8 243.9 472.7C244.2 472.9 244.4 473.2 244.7 473.4C245.3 471.7 246.9 470.4 248.9 470.4C251.3 470.4 253.3 472.4 253.3 474.8C253.3 476.7 252.1 478.3 250.4 478.9C250.7 479.2 250.9 479.4 251.1 479.7C253 478.8 254.3 477 254.3 474.8C254.3 471.9 251.9 469.5 248.9 469.5Z" fill="#5441AF"/>
<path d="M133.5 411.2C131.2 411.2 129.4 409.4 129.4 407.1C129.4 404.8 131.2 403 133.5 403C135.8 403 137.6 404.8 137.6 407.1C137.6 409.4 135.8 411.2 133.5 411.2ZM133.5 404C131.8 404 130.4 405.4 130.4 407.1C130.4 408.8 131.8 410.2 133.5 410.2C135.2 410.2 136.6 408.8 136.6 407.1C136.6 405.4 135.2 404 133.5 404Z" fill="#5441AF"/>
<path d="M214 461.3C210.8 461.3 208.3 458.7 208.3 455.6C208.3 452.5 210.9 449.9 214 449.9C217.1 449.9 219.7 452.5 219.7 455.6C219.7 458.7 217.2 461.3 214 461.3ZM214 450.8C211.4 450.8 209.3 452.9 209.3 455.5C209.3 458.1 211.4 460.2 214 460.2C216.6 460.2 218.7 458.1 218.7 455.5C218.7 452.9 216.6 450.8 214 450.8Z" fill="#5441AF"/>
<path d="M173.9 458.6C172.2 458.6 170.9 457.2 170.9 455.6C170.9 453.9 172.3 452.6 173.9 452.6C175.5 452.6 176.9 454 176.9 455.6C176.9 457.2 175.6 458.6 173.9 458.6ZM173.9 453.5C172.8 453.5 171.9 454.4 171.9 455.5C171.9 456.6 172.8 457.5 173.9 457.5C175 457.5 175.9 456.6 175.9 455.5C175.9 454.4 175 453.5 173.9 453.5Z" fill="#5441AF"/>
<path d="M101.3 414.3C102.1 413.3 102.6 412 102.6 410.5C102.6 407 99.8 404.2 96.3 404.2C94.7 404.2 93.2 404.8 92.1 405.8C92.3 406.1 92.6 406.3 92.8 406.6C93.7 405.8 95 405.2 96.3 405.2C99.2 405.2 101.6 407.6 101.6 410.5C101.6 411.7 101.2 412.8 100.5 413.7C100.7 413.9 101 414.1 101.3 414.3Z" fill="#5441AF"/>
<path d="M78.3 664.3C78.3 664.3 79.4 664.9 80.1 666C80.8 667.1 80.6 668.8 80.6 668.8" stroke="#5441AF" stroke-miterlimit="10"/>
<path d="M82 662.8C82 662.8 83.1 663.4 83.8 664.5C84.5 665.6 84.3 667.3 84.3 667.3" stroke="#5441AF" stroke-miterlimit="10"/>
<path d="M85.6 661.9C85.6 661.9 86.7 662.5 87.4 663.6C88.1 664.7 87.9 666.4 87.9 666.4" stroke="#5441AF" stroke-miterlimit="10"/>
<path d="M88.9 660.8C88.9 660.8 90 661.4 90.7 662.5C91.4 663.6 91.2 665.3 91.2 665.3" stroke="#5441AF" stroke-miterlimit="10"/>
<path d="M322.9 623.5C322.9 623.5 323.4 622.3 324.5 621.6C325.6 620.9 327.3 621 327.3 621" stroke="#5441AF" stroke-miterlimit="10"/>
<path d="M321.2 619.9C321.2 619.9 321.7 618.7 322.8 618C323.9 617.3 325.6 617.4 325.6 617.4" stroke="#5441AF" stroke-miterlimit="10"/>
<path d="M320.2 616.3C320.2 616.3 320.7 615.1 321.8 614.4C322.9 613.7 324.6 613.8 324.6 613.8" stroke="#5441AF" stroke-miterlimit="10"/>
<path d="M318.9 613.1C318.9 613.1 319.4 611.9 320.5 611.2C321.6 610.5 323.3 610.6 323.3 610.6" stroke="#5441AF" stroke-miterlimit="10"/>
<path d="M575.1 353.3L606.9 391.5L592.1 413.3L561.5 377.2L575.1 353.3Z" fill="#4F3D9D"/>
<path d="M561.5 379.7L561.6 377.4L575.2 354.8L605.3 391.5L595 406.3L584.2 402L561.5 379.7Z" fill="white"/>
<path d="M614.5 421.2L616 419.8L588.8 386.8L561.5 379V379.7L569.2 389.6L614.5 421.2Z" fill="#F7F7F7"/>
<path d="M588.2 387.8L616 421.9L590.7 417.2L561.5 379.7L588.2 387.8Z" fill="#5441AF"/>
<path d="M561.5 377.2V379.7L562.1 379.9L562 376.2L561.5 377.2Z" fill="#362E2D"/>
<path d="M652.6 514.2C652.6 514.2 631.8 532.2 623.8 539.7C615.8 547.2 611.8 550.2 609.8 555.7C607.8 561.2 603.3 600.7 602.5 613C601.7 625.3 601 651.8 601 651.8H614.8C614.8 651.8 619.8 634.3 624.8 624C629.8 613.7 637.1 602 640.3 593C643.5 584 645.1 571.7 645.1 571.7C645.1 571.7 657.9 570.5 672.9 563C687.9 555.5 694.2 551.7 694.2 551.7C694.2 551.7 703.5 570.2 711.5 585.7C719.5 601.2 722.5 606 729.5 612.7C736.5 619.4 763.7 631.1 776.2 634.9C793.5 640.1 808.6 642.1 808.6 642.1L811.1 628.8C811.1 628.8 791.1 618.7 780.2 611.2C770.2 604.3 761.9 596.5 759.4 590C756.9 583.5 753.3 546.4 750.1 529.7C746.9 513 740.6 505.9 740.6 505.9L652.6 514.2Z" fill="#FF6ED9"/>
<path d="M694.1 551.7C694.1 551.7 698.2 549.8 701.7 547.6C705.2 545.4 708.1 543 708.1 543C708.1 543 707.3 548.5 704.8 553.3C702.3 558.1 699.3 562.1 699.3 562.1L694.1 551.7Z" fill="#FF5ED2"/>
<path d="M657.4 557.8L651.4 553.1L656.1 547.1L662.1 551.8L657.4 557.8ZM652.8 553L657.2 556.4L660.6 552L656.2 548.6L652.8 553Z" fill="#5441AF"/>
<path d="M621.2 560.9L616.5 559.7L617.7 555L622.4 556.2L621.2 560.9ZM617.7 559L620.5 559.7L621.2 556.9L618.4 556.2L617.7 559Z" fill="#5441AF"/>
<path d="M690.1 537.5L685.4 536.3L686.6 531.6L691.3 532.8L690.1 537.5ZM686.6 535.6L689.4 536.3L690.1 533.5L687.3 532.8L686.6 535.6Z" fill="#5441AF"/>
<path d="M635.8 581.5L629.4 575.7L635.2 569.3L641.6 575.1L635.8 581.5ZM630.8 575.7L635.7 580.2L640.2 575.3L635.3 570.8L630.8 575.7Z" fill="#5441AF"/>
<path d="M721.4 538.6L715.7 533.6L720.7 527.9L726.4 532.9L721.4 538.6ZM717.1 533.6L721.3 537.3L725 533.1L720.8 529.4L717.1 533.6Z" fill="#5441AF"/>
<path d="M614.2 641.6L609.5 640.2L610.9 635.5L615.6 636.9L614.2 641.6ZM610.8 639.5L613.5 640.3L614.3 637.6L611.6 636.8L610.8 639.5Z" fill="#5441AF"/>
<path d="M607.9 623L606.4 615.9L613.5 614.4L615 621.5L607.9 623ZM607.6 616.6L608.7 621.8L613.9 620.7L612.8 615.5L607.6 616.6Z" fill="#5441AF"/>
<path d="M605.2 586.4C605.2 586.8 605.1 587.3 605.1 587.7L606.4 586.9L608.9 590.7L605.1 593.2L604.6 592.5C604.5 593 604.5 593.6 604.4 594.1L604.7 594.6L610.2 591.1L606.7 585.6L605.2 586.4Z" fill="#5441AF"/>
<path d="M643.2 527.7L638.7 530.4L637.1 527.8C636.8 528 636.6 528.2 636.3 528.5L638.3 531.8L644.5 528.1L641.8 523.7C641.5 523.9 641.3 524.1 641 524.4L643.2 527.7Z" fill="#5441AF"/>
<path d="M733.5 588.8L728.7 582.9L734.6 578.1L739.4 584L733.5 588.8ZM730.2 583.1L733.7 587.4L738 583.9L734.5 579.6L730.2 583.1Z" fill="#5441AF"/>
<path d="M736.3 611.3L732 609.1L734.2 604.8L738.5 607L736.3 611.3ZM733.3 608.7L735.9 610L737.2 607.4L734.6 606.1L733.3 608.7Z" fill="#5441AF"/>
<path d="M741 552.2L736.7 550L738.9 545.7L743.2 547.9L741 552.2ZM738 549.5L740.6 550.8L741.9 548.2L739.3 546.9L738 549.5Z" fill="#5441AF"/>
<path d="M761.8 594.7C761.6 594.4 761.4 594.2 761.2 593.9L757.6 596.4L753.8 590.9L758.5 587.7C758.4 587.4 758.3 587 758.3 586.6L752.5 590.6L757.4 597.7L761.8 594.7Z" fill="#5441AF"/>
<path d="M798.6 632.2L791.3 632.1L791.4 624.8L798.7 624.9L798.6 632.2ZM792.3 631.1L797.6 631.2L797.7 625.9L792.4 625.8L792.3 631.1Z" fill="#5441AF"/>
<path d="M764 629.2L761.8 623L768 620.8L770.2 627L764 629.2ZM763.1 623.6L764.6 627.9L768.9 626.4L767.4 622.1L763.1 623.6Z" fill="#5441AF"/>
<path d="M705.3 573.8L714.4 577.3L711.3 585.4C711.3 585.5 711.4 585.6 711.4 585.6C711.6 585.9 711.7 586.2 711.9 586.6L715.7 576.7L704.6 572.4C704.8 572.9 705 573.3 705.3 573.8Z" fill="#5441AF"/>
<path d="M624 605.9L629.5 613.5L630.8 612.5C631.2 611.8 631.5 611.2 631.9 610.5L629.7 612.1L625.4 606.1L631.4 601.8L634.4 605.9C634.6 605.6 634.7 605.2 634.9 604.9L631.7 600.4L624 605.9Z" fill="#5441AF"/>
<path d="M695.8 377.4C712.645 377.4 726.3 363.745 726.3 346.9C726.3 330.055 712.645 316.4 695.8 316.4C678.955 316.4 665.3 330.055 665.3 346.9C665.3 363.745 678.955 377.4 695.8 377.4Z" fill="#DF8E89"/>
<path d="M601.1 651.7C601.1 651.7 601.4 655.5 599.8 656.3C596.7 658.1 591.6 661 588.7 662.9C584.4 665.7 579.1 670.6 579.6 673.1C580.1 675.5 589.2 673.3 602.4 668.2C615.6 663.2 618.1 664.6 615.8 656.8C614.8 653.3 614.5 651.4 614.5 651.4L601.1 651.7Z" fill="#5441AF"/>
<path d="M808.4 642C808.4 642 812.1 642.5 812.7 644.2C813.8 647.6 815.7 653.2 817 656.4C818.9 661.2 822.7 667.3 825.2 667.3C827.7 667.3 827.3 657.9 825 644C822.7 630.1 824.6 627.9 816.5 628.6C812.9 628.9 811 628.8 811 628.8L808.4 642Z" fill="#5441AF"/>
<path d="M603.9 423C603.9 423 601.6 413.4 597.2 409.2C592.9 405 586.1 404 582 400.5C577.9 397 576.2 390.9 573.5 391.1C570.8 391.3 569.7 403 573.9 407.1C578.1 411.2 582.6 413.4 585.9 418C589.2 422.6 593.3 426.2 595.3 427.1C597.3 428 603.9 423 603.9 423Z" fill="#DF8E89"/>
<path d="M755.7 318.1C755.7 318.1 755.5 311.3 758.4 306C761.3 300.7 769.5 297.5 772.3 292.9C775.1 288.3 779.7 283.7 782.4 283.1C785.1 282.5 784.9 290.8 782.1 296C779.3 301.2 773.2 302.5 771.4 307.9C769.6 313.3 766.8 317.9 765.2 319.4C763.5 320.8 755.7 318.1 755.7 318.1Z" fill="#DF8E89"/>
<path d="M674.2 312.7C674.2 312.7 672.2 325.2 683.3 332C694.4 338.8 702.2 335.4 702.2 335.4C702.2 335.4 699.9 347.5 707.1 357C714.3 366.5 717.5 368.4 717.5 368.4C717.5 368.4 735.4 355.3 731.4 341.2C729.1 333.2 723.7 331.3 723.7 331.3C723.7 331.3 724 323.4 715.7 317.3C707.4 311.2 691.4 316.2 684.7 315.8C678 315.4 674.2 312.7 674.2 312.7Z" fill="#FF353A"/>
<path d="M594.1 429.2L603.6 419.2L610.6 426.5C610.6 426.5 620.4 428.3 625.2 429.9C630 431.5 634.1 434.2 634.1 434.2C634.1 434.2 657 413.3 669.2 407.2C681.4 401 700.4 397.2 715.2 389.9C730 382.6 743.2 368.6 743.2 368.6C743.2 368.6 748.2 352.8 750 346.4C751.8 340.1 754 328.9 754 328.9V317.8H767V328C767 328 771 338.7 772.2 356.8C773.4 375 769 389.6 769 389.6C769 389.6 751.5 405.8 745.3 411.9C739.1 418.1 731 426.6 731 426.6C731 426.6 736.7 447.1 741.5 468.1C746.3 489.1 747.2 508.1 747.2 508.1C747.2 508.1 725.9 524.1 696.5 525.1C667.1 526.1 647.7 514.4 647.7 514.4C647.7 514.4 648 497.1 649.4 485.6C650.7 474.1 656.7 457.1 656.7 457.1C656.7 457.1 651.7 462.8 647 466.3C642.3 469.8 637 472.6 637 472.6C637 472.6 622.8 467.8 614.2 456.6C605.5 445.4 601.5 435.9 601.5 435.9L594.1 429.2Z" fill="#5441AF"/>
<path d="M656.7 457.2C656.7 457.2 662.3 440.9 665.5 431.9C668.7 422.9 670.2 419.5 670.2 419.5C670.2 419.5 662.4 426.9 658 439.2C653.6 451.5 650.3 463.8 650.3 463.8L656.7 457.2Z" fill="#4F3D9D"/>
<path d="M497.2 512.1L499.3 508.3L532.1 489.2L545 512.1L544.4 514.9L510.3 534.7L497.2 512.1Z" fill="#FF5ED2"/>
<path d="M531.429 492.358L497.222 512.108L510.222 534.624L544.429 514.874L531.429 492.358Z" fill="#FF6ED9"/>
<path d="M363.2 659.6C363.2 659.6 357.6 625.3 362.9 591.7C368.3 557.6 377.4 522 377.4 522C377.4 522 406.2 528 426.7 524.2C447.2 520.4 471.7 513.5 471.7 513.5C471.7 513.5 475.9 532.8 478.3 555.8C480.6 578.8 479.1 575.3 482.4 586.6C485.7 597.9 497.3 630.9 501.6 640.6C506 650.3 510.7 662.3 510.7 662.3H495.4C495.4 662.3 465.2 630.8 452.4 611.8C439.6 592.8 423.8 559.1 423.8 559.1C423.8 559.1 406.8 594.3 399.9 608.9C393 623.6 375.7 662.9 375.7 662.9L363.2 659.6Z" fill="#4E3734"/>
<path d="M425.9 394C442.027 394 455.1 380.927 455.1 364.8C455.1 348.673 442.027 335.6 425.9 335.6C409.773 335.6 396.7 348.673 396.7 364.8C396.7 380.927 409.773 394 425.9 394Z" fill="#DF8E89"/>
<path d="M450.9 380C453.6 375.6 455.2 370.3 455.2 364.8C455.2 348.6 442.1 335.6 426 335.6C420 335.6 414.5 337.4 409.9 340.5C409.9 340.5 406.7 351 414.5 357.9C422.4 364.9 430.9 360.9 430.9 360.9C430.9 360.9 427.6 371 436.2 377.3C443.5 382.7 450.9 380 450.9 380Z" fill="#4E3734"/>
<path d="M454.2 353C468.007 353 479.2 341.807 479.2 328C479.2 314.193 468.007 303 454.2 303C440.393 303 429.2 314.193 429.2 328C429.2 341.807 440.393 353 454.2 353Z" fill="#4E3734"/>
<path d="M427.1 542.6C427.1 542.6 426.1 549.4 425.3 553C424.5 556.6 423.7 559.2 423.7 559.2L432.3 576.7C432.3 576.7 432.7 562.2 431.1 554.1C429.5 546 427.1 542.6 427.1 542.6Z" fill="#362E2D"/>
<path d="M363.2 659.6C363.2 659.6 353.3 661.3 348.2 661.9C343.1 662.5 336.5 664.2 335.9 666.6C335.3 669 344.1 671.4 357.9 672.9C371.7 674.3 372.9 675.9 374.1 668.1C374.6 664.5 375.5 663.1 375.5 663.1L363.2 659.6Z" fill="#FF353A"/>
<path d="M497.9 662.5C497.9 662.5 488.8 664.1 484 666.1C479.2 668.1 475.5 670.2 475.5 672.7C475.5 674.6 484.2 674 497.8 674.1C511.7 674.2 515.6 674.5 513.2 667C512.4 664.4 510.1 662.3 510.1 662.3L497.9 662.5Z" fill="#FF353A"/>
<path d="M334.5 454.6C334.5 454.6 329.9 448.9 326.7 447.1C323.5 445.3 318 443.3 315.4 441.8C312.8 440.3 307.6 436.8 306.1 439.1C304.6 441.4 306.9 445.4 310.5 447.5C314.1 449.7 319.7 459.3 325 460C330.3 460.7 332.6 460.9 332.6 460.9L334.5 454.6Z" fill="#DF8E89"/>
<path d="M511.6 490.9C511.6 490.9 513.9 490 517.3 493.4C520.7 496.8 523.9 504.6 525.1 507.5C526.3 510.4 526.6 513.3 527.7 515.3C528.8 517.4 529.1 519.6 527.7 520.4C526.3 521.2 522.1 518 518.8 514.7C515.5 511.4 511.5 509.2 509.4 504.7C507.4 500.4 507.6 496.9 507.6 496.9L511.6 490.9Z" fill="#DF8E89"/>
<path d="M336 450C336 450 351.6 452.8 357.1 453.8C362.6 454.8 369.1 456 369.1 456C369.1 456 384.6 436.2 395.2 425.3C405.8 414.5 411.6 407 427.3 407C447.5 407 471.2 432.6 484.1 447.7C499 465.2 513.2 488.5 513.2 488.5L505.4 500.3C505.4 500.3 487.3 486.6 480.1 482.6C472.9 478.6 462.4 473.3 462.4 473.3C462.4 473.3 466.2 483.6 468.8 495.1C471.4 506.6 471.8 513.4 471.8 513.4C471.8 513.4 455.1 524.7 425.7 526.4C396.3 528.1 377.5 521.9 377.5 521.9C377.5 521.9 379.1 510.6 380.8 503.2C382.5 495.9 384.4 489.4 384.4 489.4C384.4 489.4 373.8 490.3 360.1 485.5C342.3 479.3 331.2 465.4 331.2 465.4L336 450Z" fill="#7B6DCF"/>
<path d="M384.3 489.5C384.3 489.5 381.8 498.5 381.1 501.7C380.4 504.9 379.6 508.9 379.6 508.9C379.6 508.9 411 478.2 417.8 470.7C424.6 463.2 436.7 449.9 436.4 438.2C436.1 426.5 433.8 423.9 433.8 423.9C433.8 423.9 435.2 431.4 432.5 439.1C428.7 449.8 412.9 463.7 405.4 470.7C399.2 476.6 384.3 489.5 384.3 489.5Z" fill="#6A5AC1"/>
<path d="M453.4 441.9C453.4 441.9 457.5 453.7 459.1 459.2C460.7 464.7 462.3 473.3 462.3 473.3L468.3 476.4C468.3 476.4 464 463.9 461.3 457C458.6 450.1 453.4 441.9 453.4 441.9Z" fill="#6A5AC1"/>
<path d="M456.8 481.3L456.3 485.6L459.5 488.4L455.4 489.2L453.7 493.1L451.6 489.4L447.3 489.1L450.2 485.9L449.3 481.8L453.1 483.5L456.8 481.3Z" fill="#FF6ED9"/>
<path d="M471.7 513.5C471.7 513.5 471.6 511.8 471.2 508.6L469.2 511L465.7 510.7L467.6 513.7L466.3 516.6C469.9 514.7 471.7 513.5 471.7 513.5Z" fill="#FF6ED9"/>
<path d="M388.4 435.6L390 438.4L391.3 435.4L394.5 434.7L392 432.6L392.4 429.4L390.4 430.6C389 432.1 387.6 433.7 386.2 435.4L388.4 435.6Z" fill="#FF6ED9"/>
<path d="M389 524.6L392.5 523.8L389.2 521.1L389.6 516.9L386 519.2L382.1 517.6L383.2 521.7L381.9 523.2C383.7 523.6 386.1 524.1 389 524.6Z" fill="#FF6ED9"/>
<path d="M439.4 510.7L441.8 511.4L443.7 509.7L443.8 512.2L446 513.5L443.7 514.4L443.1 516.8L441.5 514.9L439.1 515.1L440.4 513L439.4 510.7Z" fill="#FF6ED9"/>
<path d="M391.4 462.2L394.5 463L397 460.9L397.2 464.2L399.9 465.8L396.9 467L396.2 470.1L394.1 467.6L390.9 467.9L392.7 465.2L391.4 462.2Z" fill="#FF6ED9"/>
<path d="M501.1 470.1L500.8 470.3L497.7 469.5L499 472.5L497.3 475.2L500.5 474.9L502.5 477.4L503.2 474.3L503.8 474.1C503 472.8 502.1 471.5 501.1 470.1Z" fill="#FF6ED9"/>
<path d="M426.7 468.6L428.4 469L429.7 467.9L429.8 469.6L431.3 470.5L429.7 471.1L429.3 472.8L428.2 471.5L426.5 471.7L427.4 470.2L426.7 468.6Z" fill="#FF6ED9"/>
<path d="M368 479.9L369.4 478.9V477.2L370.8 478.2L372.4 477.6L371.9 479.3L373 480.7H371.2L370.2 482.1L369.7 480.4L368 479.9Z" fill="#FF6ED9"/>
<path d="M500.9 492.4L502.6 492.8L503.9 491.7L504 493.4L505.5 494.3L503.9 495L503.5 496.7L502.4 495.3L500.7 495.5L501.6 494L500.9 492.4Z" fill="#FF6ED9"/>
<path d="M426.7 414.9L428.4 415.4L429.7 414.2L429.8 416L431.3 416.9L429.7 417.5L429.3 419.2L428.2 417.9L426.5 418L427.4 416.5L426.7 414.9Z" fill="#FF6ED9"/>
<path d="M470.9 446.1L472.6 446.5L473.9 445.4L474 447.1L475.5 448L473.9 448.6L473.5 450.3L472.4 449L470.6 449.2L471.6 447.7L470.9 446.1Z" fill="#FF6ED9"/>
<path d="M346.6 462.7L349.5 463.5L351.8 461.5L352 464.5L354.6 466.1L351.8 467.2L351.1 470.2L349.2 467.8L346.1 468.1L347.8 465.5L346.6 462.7Z" fill="#FF6ED9"/>
<path d="M408.6 493.1L413.8 497.1L419.9 495L417.8 501.1L421.6 506.3L415.2 506.2L411.4 511.5L409.5 505.3L403.4 503.3L408.7 499.6L408.6 493.1Z" fill="#FF6ED9"/>
<path d="M411 429.4L415.1 432.5L420 430.9L418.3 435.7L421.4 439.9L416.2 439.8L413.2 443.9L411.7 439L406.9 437.5L411.1 434.5L411 429.4Z" fill="#FF6ED9"/>
<path d="M480.1 472.2L477.3 467.9L475.6 472.7L470.6 474L474.6 477.2L474.5 479.7C475.2 480.1 475.9 480.4 476.5 480.8L478.6 479.4L483.4 481.3L482 476.4L485.3 472.4L480.1 472.2Z" fill="#FF6ED9"/>
<path d="M447.9 429.4L453.6 426.3L459.4 429.2L458.2 422.8L459 422C456.5 419.9 453.9 417.9 451.3 416.1L450.7 417.5L444.3 418.6L449 423L447.9 429.4Z" fill="#FF6ED9"/>
<path d="M885.5 496.8C885.5 496.8 881.7 533.8 896.5 577.1C911.3 620.4 929.3 660.7 929.3 660.7H944.6C944.6 660.7 947.1 622.6 946.6 597.6C946.1 572.6 945.8 553.8 945.8 553.8C945.8 553.8 957.7 565.4 964.3 569.6C970.9 573.8 978.7 573.5 987.8 571.7C996.9 569.9 1041.7 558.8 1041.7 558.8L1040.7 546.3C1040.7 546.3 1021.2 540 1009.1 537.8C997 535.6 983.3 531.3 983.3 531.3C983.3 531.3 977.4 514.6 970.4 500.7C963.4 486.8 960.6 482.3 960.6 482.3L885.5 496.8Z" fill="#7B6DCF"/>
<path d="M945.8 553.8C945.8 553.8 936.9 546.6 930.9 540.1C924.9 533.6 920.3 526.5 920.3 526.5C920.3 526.5 926.7 541.4 934.9 549.5C942.5 557.1 945.9 559 945.9 559L945.8 553.8Z" fill="#6A5AC1"/>
<path d="M938.3 577.4L930.1 570.1L940.5 570.5L938.3 577.4Z" fill="#FF6ED9"/>
<path d="M916.9 556.4L920.9 550L921.8 557.1L916.9 556.4Z" fill="#FF6ED9"/>
<path d="M938.1 646.5L935.3 639.4L941.6 642.9L938.1 646.5Z" fill="#FF6ED9"/>
<path d="M952.1 511.4L953.9 519.3L946.4 516.7L952.1 511.4Z" fill="#FF6ED9"/>
<path d="M920.8 625.1L925.6 624.5L923.6 628.9L920.8 625.1Z" fill="#FF6ED9"/>
<path d="M972.3 543.1L977.2 542.4L975.1 546.9L972.3 543.1Z" fill="#FF6ED9"/>
<path d="M992.2 551.3L995.8 545.1L999.4 550.8L992.2 551.3Z" fill="#FF6ED9"/>
<path d="M1030.3 554.9L1035.3 550.2L1038.1 554.5L1030.3 554.9Z" fill="#FF6ED9"/>
<path d="M923.5 508L924.2 503.1L927.9 506.4L923.5 508Z" fill="#FF6ED9"/>
<path d="M908.7 587L916.8 595.2L905.8 597.7L908.7 587Z" fill="#FF6ED9"/>
<path d="M954.2 537L950.4 547.9L943.3 539.1L954.2 537Z" fill="#FF6ED9"/>
<path d="M1009.8 542.4L1019.1 551.1L1008.7 555.7L1009.8 542.4Z" fill="#FF6ED9"/>
<path d="M902.5 521L909.5 529.7L912 521H902.5Z" fill="#FF6ED9"/>
<path d="M970.4 500.7C970.2 500.2 969.9 499.8 969.7 499.3L966.5 496.9L967.1 514.1L974.2 508.6C973 506 971.7 503.3 970.4 500.7Z" fill="#FF6ED9"/>
<path d="M885.1 509.3C885.1 511.6 885.2 514.1 885.3 516.9L890 517.6L885.5 509L885.1 509.3Z" fill="#FF6ED9"/>
<path d="M946.6 606.8C946.6 603.6 946.6 600.5 946.5 597.6C946.5 597 946.5 596.4 946.5 595.8L931.1 600.7L946.6 606.8Z" fill="#FF6ED9"/>
<path d="M987.1 559L975.2 567.1L984.3 572.4C985.4 572.2 986.5 572 987.7 571.8C988.6 571.6 990 571.3 991.6 571L987.1 559Z" fill="#FF6ED9"/>
<path d="M891.6 560.6H902.2L892.6 540.8L889.7 552.7C890.4 555.3 891 557.9 891.6 560.6Z" fill="#FF6ED9"/>
<path d="M925.2 371.4C941.327 371.4 954.4 358.327 954.4 342.2C954.4 326.073 941.327 313 925.2 313C909.073 313 896 326.073 896 342.2C896 358.327 909.073 371.4 925.2 371.4Z" fill="#8C503E"/>
<path d="M1041.5 558.8C1041.5 558.8 1044.1 569.2 1045.7 574.2C1047.3 579.1 1050.3 585.3 1052.7 585.4C1055.2 585.5 1055.8 576.3 1054.4 562.3C1053 548.3 1054.2 546.4 1046.1 546.5C1042.5 546.5 1040.6 546.3 1040.6 546.3L1041.5 558.8Z" fill="#4E3734"/>
<path d="M929.3 660.7C929.3 660.7 918.9 662.9 913.2 665.1C907.5 667.3 903.1 669.7 903.1 672.5C903.1 674.7 913.5 674 929.7 674C946.3 674.1 951 674.5 948.1 666.1C947.1 663.2 944.6 660.6 944.6 660.6H929.3V660.7Z" fill="#4E3734"/>
<path d="M871.1 303.6C871.1 303.6 868.7 296.5 869 292.6C869.3 288.7 870.5 282.7 870.7 279.5C870.9 276.3 870.7 269.8 873.5 269.6C876.3 269.4 878.4 273.5 878.3 277.9C878.2 282.3 883.3 292.4 881 297.6C878.7 302.8 877.6 305 877.6 305L871.1 303.6Z" fill="#8C503E"/>
<path d="M1042.1 386.2C1042.1 386.2 1049.2 383.8 1052.1 381.3C1055 378.8 1059.1 374.2 1061.6 372.1C1064.1 370 1069.4 366.2 1067.8 363.9C1066.2 361.6 1061.7 362.3 1058.2 365.1C1054.8 367.8 1043.6 369.8 1040.8 374.7C1038 379.6 1037 381.9 1037 381.9L1042.1 386.2Z" fill="#8C503E"/>
<path d="M865.3 301.8L881.8 305.6C881.8 305.6 880.2 345.8 881.5 351.3C883.3 358.5 913.3 382.3 913.3 382.3C913.3 382.3 945.8 382.6 956.3 386.6C966.8 390.6 977.8 397.9 987.8 398.6C997.8 399.3 1034.6 377.6 1034.6 377.6L1046.4 389.6C1046.4 389.6 1035.9 403.5 1028.6 410.4C1019.1 419.4 1003.6 431.9 992.8 433.4C982 434.9 948.5 422.4 948.5 422.4C948.5 422.4 956 448.4 961.7 459.7C967.5 471 973 479.2 973 479.2C973 479.2 947.1 494.7 925.2 499C903.3 503.3 878.5 499 878.5 499C878.5 499 871.7 480.7 877 451C882.3 421.3 886 414 886 414C886 414 859.7 378.3 855.5 363.7C851.3 349.1 865.3 301.8 865.3 301.8Z" fill="#FF6ED9"/>
<path d="M934.8 407.4C934.8 407.4 939.6 414.7 943 417.7C946.3 420.6 948.6 422.4 948.6 422.4L953.7 438.8C953.7 438.8 944.4 431.9 940.9 425.1C937.2 418.2 934.8 407.4 934.8 407.4Z" fill="#FF5ED2"/>
<path d="M886 413.8C886 413.8 889.6 403.7 895.9 396.3C903.1 388 913.2 382.3 913.2 382.3L909.9 379.7C909.9 379.7 900.8 383.2 892.7 392.2C885.7 400 882.8 409.6 882.8 409.6L886 413.8Z" fill="#FF5ED2"/>
<path d="M954.5 342.2C954.5 326 941.4 313 925.3 313C918.7 313 912.5 315.2 907.6 319C907.6 319 900.5 328.5 910.3 334.6C920.1 340.7 926.9 336.2 926.9 336.2C926.9 336.2 929.4 338.4 929.2 342.3C928.7 349.6 918.9 351.3 919.1 360.7C919.4 373.7 933.9 371.7 933.9 378.6C933.9 384.6 926.2 388.3 925.5 396.3C924.8 404.5 928.7 410.6 934.7 411.9C954.3 416.2 960.5 393.4 961.5 387C962.5 380.6 960.1 368.2 956.5 356.1C955.4 352.2 954.5 342.2 954.5 342.2Z" fill="white"/>
<path d="M887.034 246.688L846.936 272.34L863.803 298.707L903.902 273.055L887.034 246.688Z" fill="#4F3D9D"/>
<path d="M883.1 245L886.7 246.6L899.8 272.7L864 297L844.3 301.8V270.6L883.1 245Z" fill="white"/>
<path d="M883.3 276.9L843.2 302.6L843.1 270.6L883.1 245L883.3 276.9Z" fill="#5441AF"/>
<path d="M883.1 245L886.9 246.8L887.1 247.4L883.1 245.9V245Z" fill="#4F3D9D"/>
<path d="M885.9 246.9L894.8 272.3L856.6 298.8L864 297L899.8 272.7L887.1 247.4L885.9 246.9Z" fill="#F7F7F7"/>
<path d="M876.5 295.3L877.2 288L880.1 286.1L880.9 289.1L876.5 295.3Z" fill="#8C503E"/>
<rect x="70.2824" y="490.392" width="5" height="17" transform="rotate(136.798 70.2824 490.392)" fill="#FFEFF0"/>
</g>
<defs>
<clipPath id="clip0_1_180">
<rect width="1016.1" height="429.1" fill="white" transform="translate(52 245)"/>
</clipPath>
</defs>
</svg>
