<svg width="65" height="17" viewBox="0 0 65 17" fill="none" xmlns="http://www.w3.org/2000/svg">
<mask id="path-1-inside-1_102_11" fill="white">
<path fill-rule="evenodd" clip-rule="evenodd" d="M9 5C9 6.65685 7.65685 8 6 8C4.34315 8 3 6.65685 3 5C3 3.34315 4.34315 2 6 2C7.65685 2 9 3.34315 9 5ZM10 5C10 7.20914 8.20914 9 6 9C3.79086 9 2 7.20914 2 5C2 2.79086 3.79086 1 6 1C8.20914 1 10 2.79086 10 5ZM1 14C1 12.3431 2.34315 11 4 11H8C9.65685 11 11 12.3431 11 14V15H1V14ZM0 14C0 11.7909 1.79086 10 4 10H8C10.2091 10 12 11.7909 12 14V16H0V14Z"/>
</mask>
<path fill-rule="evenodd" clip-rule="evenodd" d="M9 5C9 6.65685 7.65685 8 6 8C4.34315 8 3 6.65685 3 5C3 3.34315 4.34315 2 6 2C7.65685 2 9 3.34315 9 5ZM10 5C10 7.20914 8.20914 9 6 9C3.79086 9 2 7.20914 2 5C2 2.79086 3.79086 1 6 1C8.20914 1 10 2.79086 10 5ZM1 14C1 12.3431 2.34315 11 4 11H8C9.65685 11 11 12.3431 11 14V15H1V14ZM0 14C0 11.7909 1.79086 10 4 10H8C10.2091 10 12 11.7909 12 14V16H0V14Z" fill="#1C2A39"/>
<path d="M11 15V16H12V15H11ZM1 15H0V16H1V15ZM12 16V17H13V16H12ZM0 16H-1V17H0V16ZM6 9C8.20914 9 10 7.20914 10 5H8C8 6.10457 7.10457 7 6 7V9ZM2 5C2 7.20914 3.79086 9 6 9V7C4.89543 7 4 6.10457 4 5H2ZM6 1C3.79086 1 2 2.79086 2 5H4C4 3.89543 4.89543 3 6 3V1ZM10 5C10 2.79086 8.20914 1 6 1V3C7.10457 3 8 3.89543 8 5H10ZM6 10C8.76142 10 11 7.76142 11 5H9C9 6.65685 7.65685 8 6 8V10ZM1 5C1 7.76142 3.23858 10 6 10V8C4.34315 8 3 6.65685 3 5H1ZM6 0C3.23858 0 1 2.23858 1 5H3C3 3.34315 4.34315 2 6 2V0ZM11 5C11 2.23858 8.76142 0 6 0V2C7.65685 2 9 3.34315 9 5H11ZM4 10C1.79086 10 0 11.7909 0 14H2C2 12.8954 2.89543 12 4 12V10ZM8 10H4V12H8V10ZM12 14C12 11.7909 10.2091 10 8 10V12C9.10457 12 10 12.8954 10 14H12ZM12 15V14H10V15H12ZM1 16H11V14H1V16ZM0 14V15H2V14H0ZM4 9C1.23858 9 -1 11.2386 -1 14H1C1 12.3431 2.34315 11 4 11V9ZM8 9H4V11H8V9ZM13 14C13 11.2386 10.7614 9 8 9V11C9.65685 11 11 12.3431 11 14H13ZM13 16V14H11V16H13ZM0 17H12V15H0V17ZM-1 14V16H1V14H-1Z" fill="#1C2A39" mask="url(#path-1-inside-1_102_11)"/>
<path fill-rule="evenodd" clip-rule="evenodd" d="M36 7.64648C36 10.6841 33.5376 13.1465 30.5 13.1465C27.4624 13.1465 25 10.6841 25 7.64648C25 4.60892 27.4624 2.14648 30.5 2.14648C33.5376 2.14648 36 4.60892 36 7.64648ZM34.8845 12.4451C33.7286 13.5018 32.1896 14.1465 30.5 14.1465C26.9101 14.1465 24 11.2363 24 7.64648C24 4.05663 26.9101 1.14648 30.5 1.14648C34.0899 1.14648 37 4.05663 37 7.64648C37 9.18666 36.4643 10.6017 35.5691 11.7155L39 15.1464L38.2929 15.8535L34.8845 12.4451Z" fill="#1C2A39"/>
<mask id="path-4-inside-2_102_11" fill="white">
<path fill-rule="evenodd" clip-rule="evenodd" d="M56.8385 1H58.8385C59.9431 1 60.8385 1.89543 60.8385 3V5H54.8385V3C54.8385 1.89543 55.734 1 56.8385 1ZM53.8385 5V3C53.8385 1.34315 55.1817 0 56.8385 0H58.8385C60.4954 0 61.8385 1.34315 61.8385 3V5H62.0547C63.0991 5 63.9677 5.80364 64.0487 6.84491L64.6709 14.8449C64.7613 16.0071 63.8426 17 62.6769 17H53.0001C51.8344 17 50.9158 16.0071 51.0061 14.8449L51.6284 6.84491C51.7094 5.80364 52.5779 5 53.6223 5H53.8385ZM61.8385 6H53.8385H53.6223C53.1001 6 52.6658 6.40182 52.6254 6.92245L52.0031 14.9225C51.9579 15.5035 52.4173 16 53.0001 16H62.6769C63.2598 16 63.7191 15.5035 63.6739 14.9225L63.0517 6.92246C63.0112 6.40182 62.5769 6 62.0547 6H61.8385Z"/>
</mask>
<path fill-rule="evenodd" clip-rule="evenodd" d="M56.8385 1H58.8385C59.9431 1 60.8385 1.89543 60.8385 3V5H54.8385V3C54.8385 1.89543 55.734 1 56.8385 1ZM53.8385 5V3C53.8385 1.34315 55.1817 0 56.8385 0H58.8385C60.4954 0 61.8385 1.34315 61.8385 3V5H62.0547C63.0991 5 63.9677 5.80364 64.0487 6.84491L64.6709 14.8449C64.7613 16.0071 63.8426 17 62.6769 17H53.0001C51.8344 17 50.9158 16.0071 51.0061 14.8449L51.6284 6.84491C51.7094 5.80364 52.5779 5 53.6223 5H53.8385ZM61.8385 6H53.8385H53.6223C53.1001 6 52.6658 6.40182 52.6254 6.92245L52.0031 14.9225C51.9579 15.5035 52.4173 16 53.0001 16H62.6769C63.2598 16 63.7191 15.5035 63.6739 14.9225L63.0517 6.92246C63.0112 6.40182 62.5769 6 62.0547 6H61.8385Z" fill="#1C2A39"/>
<path d="M60.8385 5V6H61.8385V5H60.8385ZM54.8385 5H53.8385V6H54.8385V5ZM53.8385 5V6H54.8385V5H53.8385ZM61.8385 5H60.8385V6H61.8385V5ZM64.0487 6.84491L65.0457 6.76737L64.0487 6.84491ZM64.6709 14.8449L63.6739 14.9225L64.6709 14.8449ZM51.0061 14.8449L50.0092 14.7674L50.0092 14.7674L51.0061 14.8449ZM51.6284 6.84491L50.6314 6.76737L50.6314 6.76737L51.6284 6.84491ZM52.6254 6.92245L51.6284 6.84491L51.6284 6.84491L52.6254 6.92245ZM52.0031 14.9225L51.0061 14.8449L51.0061 14.8449L52.0031 14.9225ZM63.6739 14.9225L62.6769 15L62.6769 15L63.6739 14.9225ZM63.0517 6.92246L62.0547 7L63.0517 6.92246ZM58.8385 0H56.8385V2H58.8385V0ZM61.8385 3C61.8385 1.34315 60.4954 0 58.8385 0V2C59.3908 2 59.8385 2.44772 59.8385 3H61.8385ZM61.8385 5V3H59.8385V5H61.8385ZM60.8385 4H54.8385V6H60.8385V4ZM53.8385 3V5H55.8385V3H53.8385ZM56.8385 0C55.1817 0 53.8385 1.34315 53.8385 3H55.8385C55.8385 2.44772 56.2862 2 56.8385 2V0ZM52.8385 3V5H54.8385V3H52.8385ZM56.8385 -1C54.6294 -1 52.8385 0.790861 52.8385 3H54.8385C54.8385 1.89543 55.734 1 56.8385 1V-1ZM58.8385 -1H56.8385V1H58.8385V-1ZM62.8385 3C62.8385 0.790861 61.0477 -1 58.8385 -1V1C59.9431 1 60.8385 1.89543 60.8385 3H62.8385ZM62.8385 5V3H60.8385V5H62.8385ZM62.0547 4H61.8385V6H62.0547V4ZM65.0457 6.76737C64.9242 5.20546 63.6213 4 62.0547 4V6C62.5769 6 63.0112 6.40182 63.0517 6.92246L65.0457 6.76737ZM65.6679 14.7674L65.0457 6.76737L63.0517 6.92246L63.6739 14.9225L65.6679 14.7674ZM62.6769 18C64.4255 18 65.8035 16.5106 65.6679 14.7674L63.6739 14.9225C63.7191 15.5035 63.2598 16 62.6769 16V18ZM53.0001 18H62.6769V16H53.0001V18ZM50.0092 14.7674C49.8736 16.5106 51.2516 18 53.0001 18V16C52.4173 16 51.9579 15.5035 52.0031 14.9225L50.0092 14.7674ZM50.6314 6.76737L50.0092 14.7674L52.0031 14.9225L52.6254 6.92245L50.6314 6.76737ZM53.6223 4C52.0557 4 50.7529 5.20545 50.6314 6.76737L52.6254 6.92245C52.6658 6.40182 53.1001 6 53.6223 6V4ZM53.8385 4H53.6223V6H53.8385V4ZM61.8385 5H53.8385V7H61.8385V5ZM53.8385 5H53.6223V7H53.8385V5ZM53.6223 5C52.5779 5 51.7094 5.80364 51.6284 6.84491L53.6223 7L53.6223 7V5ZM51.6284 6.84491L51.0061 14.8449L53.0001 15L53.6223 7L51.6284 6.84491ZM51.0061 14.8449C50.9158 16.0071 51.8344 17 53.0001 17V15L53.0001 15L51.0061 14.8449ZM53.0001 17H62.6769V15H53.0001V17ZM62.6769 17C63.8426 17 64.7613 16.0071 64.6709 14.8449L62.6769 15L62.6769 15V17ZM64.6709 14.8449L64.0487 6.84491L62.0547 7L62.6769 15L64.6709 14.8449ZM64.0487 6.84491C63.9677 5.80364 63.0991 5 62.0547 5V7L62.0547 7L64.0487 6.84491ZM62.0547 5H61.8385V7H62.0547V5Z" fill="#1C2A39" mask="url(#path-4-inside-2_102_11)"/>
</svg>
