<svg width="16" height="16" viewBox="0 0 16 16" fill="none" xmlns="http://www.w3.org/2000/svg">
<g clip-path="url(#clip0_4_29)">
<path d="M4.031 3.69898C4.29321 3.43861 4.29337 3.01456 4.03135 2.75399L3.77731 2.50137C3.51717 2.24267 3.09674 2.24325 2.83732 2.50268C2.57738 2.76261 2.57738 3.18405 2.83732 3.44399L3.09065 3.69732C3.35013 3.9568 3.7706 3.95754 4.031 3.69898ZM2.66666 7.66666C2.66666 7.29847 2.36819 7 2 7H1.33333C0.965141 7 0.666664 7.29847 0.666664 7.66666C0.666664 8.03485 0.965141 8.33333 1.33333 8.33333H2C2.36819 8.33333 2.66666 8.03485 2.66666 7.66666ZM8.66666 1.03333C8.66666 0.665141 8.36819 0.366665 8 0.366665C7.63181 0.366665 7.33333 0.665142 7.33333 1.03333V1.66666C7.33333 2.03485 7.63181 2.33333 8 2.33333C8.36819 2.33333 8.66666 2.03485 8.66666 1.66666V1.03333ZM13.1633 3.44333C13.4229 3.18376 13.4229 2.7629 13.1633 2.50333C12.9038 2.24376 12.4829 2.24376 12.2233 2.50333L11.97 2.75666C11.7104 3.01624 11.7104 3.43709 11.97 3.69666C12.2296 3.95624 12.6504 3.95624 12.91 3.69666L13.1633 3.44333ZM11.96 11.64C11.7021 11.8979 11.7015 12.316 11.9587 12.5746L12.218 12.8354C12.4766 13.0954 12.8973 13.096 13.1567 12.8367C13.416 12.5773 13.4154 12.1566 13.1554 11.898L12.8946 11.6387C12.636 11.3815 12.2179 11.3821 11.96 11.64ZM14 7C13.6318 7 13.3333 7.29847 13.3333 7.66666C13.3333 8.03485 13.6318 8.33333 14 8.33333H14.6667C15.0349 8.33333 15.3333 8.03485 15.3333 7.66666C15.3333 7.29847 15.0349 7 14.6667 7H14ZM8 3.66666C5.79333 3.66666 4 5.46 4 7.66666C4 9.87333 5.79333 11.6667 8 11.6667C10.2067 11.6667 12 9.87333 12 7.66666C12 5.46 10.2067 3.66666 8 3.66666ZM7.33333 14.3C7.33333 14.6682 7.63181 14.9667 8 14.9667C8.36819 14.9667 8.66666 14.6682 8.66666 14.3V13.6667C8.66666 13.2985 8.36819 13 8 13C7.63181 13 7.33333 13.2985 7.33333 13.6667V14.3ZM2.83405 11.89C2.57571 12.1498 2.57629 12.5696 2.83535 12.8287C3.09544 13.0888 3.5173 13.0882 3.77666 12.8274L4.03261 12.57C4.29095 12.3102 4.29037 11.8904 4.03131 11.6313C3.77122 11.3712 3.34936 11.3718 3.09 11.6326L2.83405 11.89Z" fill="#939393"/>
</g>
<defs>
<clipPath id="clip0_4_29">
<rect width="16" height="16" fill="white"/>
</clipPath>
</defs>
</svg>
